# xmcd
#
# Track frame offsets: 
#        150
#        12133
#        23822
#        33467
#        45240
#        58426
#        76384
#        85013
#        95630
#        114224
#        127035
#        140669
#
# Disc length: 2042 seconds
#
# Revision: 7
# Processed by: cddbd v1.5.2PL0 Copyright (c) Steve Scherf et al.
# Submitted via: ExactAudioCopy v1.0b1
#
DISCID=9607f80c
DTITLE=Johnny Cash - Ring Of Fire: The Best Of Johnny Cash
DYEAR=1963
DGENRE=Country
TTITLE0=Ring Of Fire
TTITLE1=I'd Still Be There
TTITLE2=What Do I Care
TTITLE3=I Still Miss Someone
TTITLE4=Forty Shades Of Green
TTITLE5=Were You There (When They Crucified My Lord)
TTITLE6=The Rebel - Johnny Yuma
TTITLE7=Bonanza!
TTITLE8=The Big Battle
TTITLE9=Remember The Alamo
TTITLE10=Tennessee Flat-Top Box
TTITLE11=(There'll Be) Peace In The Valley (For Me)
EXTD=Columbia/Legacy
EXTT0=
EXTT1=
EXTT2=
EXTT3=
EXTT4=
EXTT5=
EXTT6=
EXTT7=
EXTT8=
EXTT9=
EXTT10=
EXTT11=
PLAYORDER=
